<svg xmlns="http://www.w3.org/2000/svg" id="vector" viewBox="0 0 192 192"><path id="path" fill="#00000000" stroke="#fff" stroke-linecap="round" stroke-linejoin="round" stroke-width="8" d="M 72.37 71.268 C 66.714 69.291 60.576 69.337 54.95 71.4 C 49.324 73.462 44.53 77.423 41.347 82.64 C 38.165 87.856 36.775 94.031 37.402 100.162 L 37.254 100.162 C 33.194 100.177 29.295 101.821 26.385 104.744 C 23.474 107.668 21.775 111.649 21.648 115.839 C 21.522 120.031 22.978 124.112 25.706 127.217 C 28.434 130.323 32.228 132.214 36.279 132.49 C 53.862 131.968 70.573 124.382 82.833 111.353 C 95.092 98.325 101.958 80.858 101.959 62.691 C 101.959 61.707 101.925 60.729 101.886 59.762 C 100.509 59.575 99.122 59.477 97.733 59.469 C 92.937 59.464 88.194 60.513 83.821 62.547 C 79.448 64.582 75.544 67.555 72.37 71.268 Z M 131.126 85.683 C 131.126 84.64 133.934 85.191 133.894 84.16 C 132.441 83.762 131.059 82.56 129.558 82.476 C 126.871 74.848 121.694 68.42 114.922 64.301 C 108.151 60.181 100.197 58.622 92.435 59.894 C 84.672 61.165 77.576 65.188 72.37 71.268 C 66.714 69.291 60.576 69.337 54.95 71.4 C 49.324 73.462 44.53 77.423 41.347 82.64 C 38.165 87.856 36.775 94.031 37.402 100.162 L 37.254 100.162 C 33.099 100.162 29.109 101.869 26.171 104.904 C 23.233 107.938 21.58 112.058 21.58 116.35 C 21.58 120.641 23.233 124.761 26.171 127.795 C 29.109 130.83 33.099 132.537 37.254 132.537 L 117.276 132.537 C 128.12 119.749 131.146 102.681 131.126 85.683 Z M 154.746 100.157 C 153.157 100.155 151.576 100.404 150.06 100.895 C 149.13 95.9 146.604 91.369 142.887 88.03 C 139.172 84.692 134.477 82.735 129.558 82.476 C 126.871 74.848 121.694 68.42 114.922 64.301 C 108.151 60.181 100.197 58.622 92.435 59.894 C 84.672 61.165 77.576 65.188 72.37 71.268 C 66.714 69.291 60.576 69.337 54.95 71.4 C 49.324 73.462 44.53 77.423 41.347 82.64 C 38.165 87.856 36.775 94.031 37.402 100.162 L 37.254 100.162 C 33.099 100.162 29.109 101.869 26.171 104.904 C 23.233 107.938 21.58 112.058 21.58 116.35 C 21.58 120.641 23.233 124.761 26.171 127.795 C 29.109 130.83 33.099 132.537 37.254 132.537 L 154.746 132.537 C 158.901 132.537 162.891 130.83 165.829 127.795 C 168.767 124.761 170.42 120.641 170.42 116.35 C 170.42 112.058 168.767 107.938 165.829 104.904 C 162.891 101.869 158.901 100.162 154.746 100.162 C 156.098 100.206 154.746 100.156 154.746 100.156 Z"/></svg>