<svg xmlns="http://www.w3.org/2000/svg" viewBox="0 0 400 400" width="32" height="32"><rect transform="rotate(45 200 200)" rx="39" height="250" width="250" y="75" x="75" fill="#f494a3"/><path fill-rule="evenodd" fill="#fcfbfb" d="M149.753 142.69c-32.224 6.352-44.876 44.948-21.601 67.986l3.12 3.088-8.296 5.427a2319.37 2319.37 0 01-12.695 8.252c-9.905 6.361-12.224 13.845-6.316 20.385 4.975 5.507 7.849 5.28 26.23-2.086 7.076-2.835 13.1-5.154 13.386-5.154.426 0 .516 7.422.489 40.246l-.034 40.247 4.523 4.825c6.872 7.334 18.635 19.082 19.105 19.082.287 0 .417-17.769.417-57.213 0-54.136.038-57.224.7-57.436.792-.253 1.796-.636 3.4-1.297l2.2-.908a199.01 199.01 0 014-1.6c.495-.19 1.35-.526 1.9-.746l2-.8 2-.8c.55-.22 1.405-.556 1.9-.746a202.282 202.282 0 004-1.6c.605-.25 1.55-.634 2.1-.854.55-.22 1.495-.604 2.1-.854.605-.249 1.55-.63 2.1-.846.55-.216 1.313-.552 1.695-.747.382-.194.885-.353 1.119-.353.234 0 1.17-.36 2.08-.8.91-.44 1.81-.8 2-.8.19 0 1.09-.36 2-.8.91-.44 1.804-.8 1.985-.8.182 0 1.093-.34 2.025-.756 8.278-3.689 12.047-4.847 15.776-4.845 6.543.002 11.149-1.793 15.342-5.98 2.576-2.573 5.178-6.96 5.178-8.732 0-1.137 1.07-1.837 4.4-2.877 8.255-2.578 15.473-4.934 16.095-5.253 1.104-.568 2.008-.427 4.168.65 20.099 10.015 38.829-15.952 22.955-31.825-12.637-12.638-33.994-3.637-34.022 14.338l-.004 2.68-4.296 1.354c-2.363.745-5.847 1.87-7.743 2.5-4.415 1.467-4.04 1.531-6.928-1.17-12.305-11.512-33.825-3.186-33.825 13.087 0 1.194-.331 1.408-3.8 2.456-.88.266-1.96.62-2.4.785-1.795.675-5.133 1.588-5.278 1.443-.086-.085.058-1.303.318-2.705 5.11-27.506-19.19-52.659-45.84-47.449"/></svg>