<svg xmlns="http://www.w3.org/2000/svg" width="800" height="800" fill="#fff" stroke="#fff" version="1.1" viewBox="0 0 32 32"><g id="SVGRepo_iconCarrier"><title>tv</title><path d="M26 27.25h-20c-0.414 0-0.75 0.336-0.75 0.75s0.336 0.75 0.75 0.75v0h20c0.414 0 0.75-0.336 0.75-0.75s-0.336-0.75-0.75-0.75v0zM28 3.25h-24c-1.518 0.002-2.748 1.232-2.75 2.75v16c0.002 1.518 1.232 2.748 2.75 2.75h24c1.518-0.002 2.748-1.232 2.75-2.75v-16c-0.002-1.518-1.232-2.748-2.75-2.75h-0zM29.25 22c-0.001 0.69-0.56 1.249-1.25 1.25h-24c-0.69-0.001-1.249-0.56-1.25-1.25v-16c0.001-0.69 0.56-1.249 1.25-1.25h24c0.69 0.001 1.249 0.56 1.25 1.25v0z"/></g></svg>